<svg width="24" height="24" viewBox="0 0 24 24" fill="none" xmlns="http://www.w3.org/2000/svg">
<g clip-path="url(#clip0_446_391)">
<path d="M12 0C5.3725 0 0 5.3725 0 12C0 18.6275 5.3725 24 12 24C18.6275 24 24 18.6275 24 12C24 5.3725 18.6275 0 12 0ZM16.8813 9.83C16.8854 9.9325 16.8875 10.0342 16.8875 10.135C16.8875 13.26 14.5113 16.8612 10.1638 16.8612C8.87917 16.863 7.62136 16.4941 6.54125 15.7987C6.72542 15.8204 6.91333 15.8308 7.105 15.83C8.2125 15.83 9.23125 15.4538 10.04 14.8188C9.54715 14.8091 9.06959 14.6459 8.67389 14.3519C8.27819 14.0579 7.98406 13.6478 7.8325 13.1788C8.18644 13.2461 8.55106 13.2319 8.89875 13.1375C8.36359 13.0298 7.88226 12.74 7.53657 12.3175C7.19088 11.8951 7.00216 11.3659 7.0025 10.82V10.7913C7.32125 10.9675 7.68625 11.075 8.07375 11.0875C7.57225 10.7537 7.21723 10.2408 7.08131 9.65392C6.94538 9.06699 7.03881 8.45032 7.3425 7.93C7.9364 8.65977 8.67683 9.25679 9.51592 9.68247C10.355 10.1081 11.2741 10.353 12.2137 10.4012C12.0943 9.89414 12.1457 9.36176 12.36 8.88688C12.5743 8.412 12.9395 8.02124 13.3988 7.77533C13.8582 7.52942 14.3858 7.44215 14.8999 7.52709C15.4139 7.61203 15.8855 7.86441 16.2412 8.245C16.7702 8.14027 17.2774 7.94625 17.7413 7.67125C17.565 8.21892 17.1958 8.68397 16.7025 8.98C17.1711 8.92355 17.6286 8.79758 18.06 8.60625C17.7438 9.0817 17.3445 9.49624 16.8813 9.83Z" fill="white"/>
</g>
<defs>
<clipPath id="clip0_446_391">
<rect width="24" height="24" fill="white"/>
</clipPath>
</defs>
</svg>
