<svg width="48" height="48" viewBox="0 0 48 48" fill="none" xmlns="http://www.w3.org/2000/svg">
<path d="M30 24H24M24 24H18M24 24V18M24 24V30" stroke="white" stroke-width="3" stroke-linecap="round"/>
<path d="M44 24C44 33.428 44 38.142 41.07 41.07C38.144 44 33.428 44 24 44C14.572 44 9.858 44 6.928 41.07C4 38.144 4 33.428 4 24C4 14.572 4 9.858 6.928 6.928C9.86 4 14.572 4 24 4C33.428 4 38.142 4 41.07 6.928C43.018 8.876 43.67 11.614 43.89 16" stroke="#F8C200" stroke-width="3" stroke-linecap="round"/>
</svg>
