<svg width="24" height="24" viewBox="0 0 24 24" fill="none" xmlns="http://www.w3.org/2000/svg">
<path d="M12 5.5L11.46 6.02L11.47 6.031L12 5.5ZM7.001 16.42C6.84717 16.2935 6.64939 16.2333 6.45117 16.2526C6.25294 16.2719 6.07051 16.3692 5.944 16.523C5.81749 16.6768 5.75727 16.8746 5.77659 17.0728C5.7959 17.2711 5.89317 17.4535 6.047 17.58L7.001 16.42ZM2.342 13.411C2.38928 13.4974 2.45311 13.5737 2.52985 13.6354C2.6066 13.6971 2.69475 13.7432 2.78928 13.7708C2.88381 13.7985 2.98287 13.8073 3.08079 13.7967C3.17871 13.7861 3.27359 13.7563 3.36 13.709C3.44641 13.6617 3.52266 13.5979 3.5844 13.5211C3.64614 13.4444 3.69216 13.3562 3.71983 13.2617C3.74751 13.1672 3.75629 13.0681 3.74568 12.9702C3.73507 12.8723 3.70528 12.7774 3.658 12.691L2.342 13.411ZM13.47 8.031C13.5397 8.1006 13.6225 8.15579 13.7135 8.1934C13.8046 8.23102 13.9022 8.25033 14.0007 8.25024C14.0992 8.25015 14.1968 8.23065 14.2878 8.19286C14.3787 8.15507 14.4614 8.09973 14.531 8.03C14.6006 7.96027 14.6558 7.87751 14.6934 7.78645C14.731 7.69539 14.7503 7.59782 14.7502 7.49929C14.7501 7.40077 14.7306 7.30323 14.6929 7.21224C14.6551 7.12126 14.5997 7.0386 14.53 6.969L13.47 8.031ZM2.75 9.136C2.75 6.986 3.965 5.182 5.624 4.423C7.236 3.686 9.402 3.882 11.46 6.02L12.54 4.98C10.1 2.444 7.264 2.025 5 3.06C2.786 4.073 1.25 6.425 1.25 9.137L2.75 9.136ZM8.497 19.5C9.01 19.904 9.56 20.334 10.117 20.66C10.674 20.986 11.31 21.25 12 21.25V19.75C11.69 19.75 11.326 19.63 10.874 19.365C10.421 19.101 9.952 18.737 9.426 18.322L8.497 19.5ZM15.503 19.5C16.929 18.375 18.753 17.087 20.183 15.476C21.64 13.836 22.75 11.803 22.75 9.137H21.25C21.25 11.335 20.35 13.028 19.062 14.48C17.747 15.96 16.09 17.127 14.574 18.322L15.503 19.5ZM22.75 9.137C22.75 6.425 21.215 4.073 19 3.06C16.736 2.025 13.902 2.444 11.46 4.98L12.54 6.02C14.598 3.883 16.764 3.687 18.376 4.424C20.035 5.183 21.25 6.986 21.25 9.137H22.75ZM14.574 18.322C14.048 18.737 13.579 19.101 13.126 19.365C12.673 19.629 12.31 19.75 12 19.75V21.25C12.69 21.25 13.326 20.985 13.883 20.66C14.441 20.334 14.99 19.904 15.503 19.5L14.574 18.322ZM9.426 18.322C8.63 17.695 7.821 17.095 7.001 16.42L6.047 17.58C6.877 18.263 7.755 18.915 8.497 19.5L9.426 18.322ZM3.658 12.692C3.05552 11.6045 2.74284 10.3803 2.75 9.137H1.25C1.25 10.775 1.67 12.182 2.342 13.411L3.658 12.692ZM11.47 6.031L13.47 8.03L14.53 6.969L12.53 4.97L11.47 6.031Z" fill="#F8C200"/>
</svg>
