<svg width="24" height="24" viewBox="0 0 24 24" fill="none" xmlns="http://www.w3.org/2000/svg">
<path d="M12 0C18.6274 0 24 5.37258 24 12C24 18.6274 18.6274 24 12 24C5.37258 24 0 18.6274 0 12C0 5.37258 5.37258 0 12 0ZM13.999 6.66699C13.9814 6.66724 13.9645 6.67397 13.9521 6.68652C13.8322 6.90652 13.692 7.19309 13.5986 7.41309C12.538 7.25321 11.4591 7.25319 10.3984 7.41309C10.3051 7.1865 10.1657 6.90644 10.0391 6.68652C10.0324 6.67321 10.0122 6.66701 9.99219 6.66699C8.99227 6.84031 8.03878 7.13945 7.14551 7.55273C7.13884 7.55273 7.13167 7.55974 7.125 7.56641C5.31174 10.2797 4.81193 12.9199 5.05859 15.5332C5.0586 15.5465 5.06578 15.5597 5.0791 15.5664C6.27904 16.4463 7.43232 16.9797 8.57227 17.333C8.59212 17.3396 8.61237 17.3335 8.61914 17.3203C8.88575 16.9537 9.1254 16.5667 9.33203 16.1602C9.34534 16.1335 9.33223 16.1063 9.30566 16.0996C8.92566 15.9529 8.56525 15.7801 8.21191 15.5801C8.18546 15.5668 8.18544 15.5269 8.20508 15.5068C8.27841 15.4535 8.35245 15.3932 8.42578 15.3398C8.43898 15.3268 8.45841 15.3266 8.47168 15.333C10.765 16.3797 13.2392 16.3797 15.5059 15.333C15.5191 15.3266 15.5386 15.3268 15.5518 15.3398C15.6251 15.3998 15.6991 15.4527 15.7725 15.5127C15.7991 15.5327 15.7989 15.5736 15.7656 15.5869C15.419 15.7936 15.0519 15.9598 14.6719 16.1064C14.6454 16.1132 14.6389 16.147 14.6455 16.167C14.8587 16.5734 15.0986 16.9597 15.3584 17.3262C15.3784 17.3328 15.3989 17.3397 15.4189 17.333C16.5655 16.9797 17.719 16.4464 18.9189 15.5664C18.9321 15.5597 18.9385 15.5465 18.9385 15.5332C19.2318 12.5132 18.4521 9.89307 16.8721 7.56641C16.8655 7.55981 16.8588 7.55282 16.8457 7.55273C15.9591 7.13945 14.9989 6.84033 13.999 6.66699ZM9.67871 11.1133C10.3853 11.1133 10.9451 11.7531 10.9385 12.5264C10.9385 13.3064 10.3787 13.9395 9.67871 13.9395C8.99207 13.9394 8.41895 13.3063 8.41895 12.5264C8.41901 11.7465 8.97878 11.1133 9.67871 11.1133ZM14.3252 11.1133C15.0318 11.1133 15.5916 11.7531 15.585 12.5264C15.585 13.3064 15.0319 13.9395 14.3252 13.9395C13.6386 13.9393 13.0654 13.3063 13.0654 12.5264C13.0655 11.7465 13.6254 11.1134 14.3252 11.1133Z" fill="white"/>
</svg>
